<svg xmlns="http://www.w3.org/2000/svg" width="198.07" height="29.831" viewBox="0 0 198.07 29.831">
  <g id="diverse_logo" transform="translate(-441.349 -418.444)">
    <g id="グループ_9" data-name="グループ 9" transform="translate(478.037 425.608)">
      <path id="パス_20" data-name="パス 20" d="M453.305,431.43l0-9.662h6.225a6.044,6.044,0,0,1,4.082,1.24,4.44,4.44,0,0,1,1.43,3.533,5.2,5.2,0,0,1-.559,2.434,4.26,4.26,0,0,1-1.568,1.71,4.722,4.722,0,0,1-1.575.562,12.724,12.724,0,0,1-2.394.184Zm2.241-1.823,2.91.006a5.73,5.73,0,0,0,3.3-.724,2.789,2.789,0,0,0,.976-2.385,2.957,2.957,0,0,0-.807-2.244,3.349,3.349,0,0,0-2.388-.767h-3.993Z" transform="translate(-453.302 -418.731)" fill="#eee"/>
      <path id="パス_21" data-name="パス 21" d="M458.156,430.246v-7.907h1.912l0,7.907Z" transform="translate(-443.257 -417.548)" fill="#eee"/>
      <path id="パス_22" data-name="パス 22" d="M464.3,430.25l-4.782-7.907H461.7l3.349,5.731,3.155-5.737h2l-4.579,7.913Z" transform="translate(-440.441 -417.552)" fill="#eee"/>
      <path id="パス_23" data-name="パス 23" d="M498.51,430.246v-7.907h8.5l0,1.394h-6.556l0,1.728h3.806v1.357h-3.806v1.952H507.1l0,1.476Z" transform="translate(-359.749 -417.548)" fill="#eee"/>
      <path id="パス_24" data-name="パス 24" d="M502.353,430.25v-7.907l1.538-.006,3.88,4.7,3.855-4.693,1.553-.006,0,7.913h-1.793v-5.442l-3.536,4.5-.374-.009-3.582-4.365v5.319Z" transform="translate(-351.797 -417.552)" fill="#eee"/>
      <path id="パス_25" data-name="パス 25" d="M463.754,430.25v-7.907l8.49-.006v1.4h-6.556v1.728h3.806v1.357h-3.806v1.952h6.651l0,1.476Z" transform="translate(-431.673 -417.552)" fill="#eee"/>
      <path id="パス_26" data-name="パス 26" d="M475.6,430.25v-7.907l8.49-.006v1.4h-6.553l0,1.728h3.8l0,1.357h-3.8v1.952h6.645l0,1.476Z" transform="translate(-407.157 -417.552)" fill="#eee"/>
      <path id="パス_27" data-name="パス 27" d="M481.6,420.778l0,15.5-1.378-.006v-15.5Z" transform="translate(-397.596 -420.778)" fill="#eee"/>
      <path id="パス_28" data-name="パス 28" d="M491.119,430.25l0-3.557-4.319-4.349,2.606-.006,2.83,2.953,2.855-2.947,2.256-.006-4.288,4.322v3.591Z" transform="translate(-383.988 -417.552)" fill="#eee"/>
      <path id="パス_29" data-name="パス 29" d="M500.341,423.761v6.489H498.4v-6.489H494.57l.006-1.424h9.589v1.424Z" transform="translate(-367.902 -417.552)" fill="#eee"/>
      <path id="パス_30" data-name="パス 30" d="M474.718,427.259h-.126A2.267,2.267,0,0,0,476,426.9a1.414,1.414,0,0,0,.436-1.157v-1.885a1.441,1.441,0,0,0-.436-1.169,2.192,2.192,0,0,0-1.412-.353h-7.133v7.907h1.888l0-2.993h3.244l1.743,2.993h2.182Zm-5.371-1.36.006-2.21h4.414a1.2,1.2,0,0,1,.69.144.6.6,0,0,1,.187.5l0,.921a.608.608,0,0,1-.184.506,1.163,1.163,0,0,1-.69.151Z" transform="translate(-424.006 -417.548)" fill="#eee"/>
      <path id="パス_31" data-name="パス 31" d="M478.371,425.419H474.1a1.169,1.169,0,0,1-.691-.151.573.573,0,0,1-.184-.494l0-.365a.582.582,0,0,1,.19-.5,1.113,1.113,0,0,1,.691-.15h3.772a1.113,1.113,0,0,1,.688.15.493.493,0,0,1,.178.338h1.688v-.19a1.653,1.653,0,0,0-.445-1.338,2.57,2.57,0,0,0-1.642-.384h-4.782a2.455,2.455,0,0,0-1.636.4,1.986,1.986,0,0,0-.427,1.467v.881a1.961,1.961,0,0,0,.427,1.476,2.45,2.45,0,0,0,1.636.4h4.245a1.17,1.17,0,0,1,.69.15.593.593,0,0,1,.184.491l0,.534a.585.585,0,0,1-.187.491,1.174,1.174,0,0,1-.69.147h-3.7a1.11,1.11,0,0,1-.7-.147.59.59,0,0,1-.184-.466l-1.731.006v.224a1.978,1.978,0,0,0,.436,1.467,2.556,2.556,0,0,0,1.664.393h4.779a2.445,2.445,0,0,0,1.63-.393,1.95,1.95,0,0,0,.43-1.473l0-1.093a2,2,0,0,0-.42-1.479A2.5,2.5,0,0,0,478.371,425.419Z" transform="translate(-415.66 -417.552)" fill="#eee"/>
      <path id="パス_32" data-name="パス 32" d="M497.795,425.419h-4.27a1.176,1.176,0,0,1-.691-.151.6.6,0,0,1-.187-.494v-.365a.6.6,0,0,1,.187-.5,1.141,1.141,0,0,1,.7-.15H497.3a1.112,1.112,0,0,1,.7.154.526.526,0,0,1,.175.334h1.688v-.19a1.685,1.685,0,0,0-.442-1.338,2.677,2.677,0,0,0-1.651-.384h-4.779a2.5,2.5,0,0,0-1.636.4,2,2,0,0,0-.43,1.467v.881a2.008,2.008,0,0,0,.43,1.476,2.431,2.431,0,0,0,1.636.4h4.245a1.109,1.109,0,0,1,.688.15.6.6,0,0,1,.193.5l0,.528a.608.608,0,0,1-.187.5,1.265,1.265,0,0,1-.691.138h-3.7a1.265,1.265,0,0,1-.691-.138.6.6,0,0,1-.187-.47h-1.731v.218a1.924,1.924,0,0,0,.439,1.473,2.548,2.548,0,0,0,1.657.393h4.782a2.54,2.54,0,0,0,1.633-.387,1.986,1.986,0,0,0,.43-1.479v-1.093a2.02,2.02,0,0,0-.421-1.486A2.529,2.529,0,0,0,497.795,425.419Z" transform="translate(-375.464 -417.552)" fill="#eee"/>
      <path id="パス_33" data-name="パス 33" d="M490.884,425.527h-5.212a1.423,1.423,0,0,1-.844-.178.722.722,0,0,1-.227-.611V424.3a.757.757,0,0,1,.227-.614,1.5,1.5,0,0,1,.844-.181h4.61a1.444,1.444,0,0,1,.844.181.658.658,0,0,1,.212.417h2.069l0-.233a2.066,2.066,0,0,0-.549-1.633,3.122,3.122,0,0,0-2.014-.47h-5.838a3.013,3.013,0,0,0-2,.485,2.426,2.426,0,0,0-.525,1.8l.006,1.068a2.419,2.419,0,0,0,.519,1.808,3.034,3.034,0,0,0,2,.482H490.2a1.452,1.452,0,0,1,.841.184.736.736,0,0,1,.233.608l0,.645a.717.717,0,0,1-.23.608,1.429,1.429,0,0,1-.841.184l-4.53-.006a1.425,1.425,0,0,1-.838-.178.718.718,0,0,1-.233-.568l-2.109.006v.267a2.366,2.366,0,0,0,.537,1.8,3.12,3.12,0,0,0,2.023.476h5.838a3.028,3.028,0,0,0,2-.482,2.367,2.367,0,0,0,.528-1.792v-1.338a2.467,2.467,0,0,0-.516-1.814A3.07,3.07,0,0,0,490.884,425.527Z" transform="translate(-392.909 -418.731)" fill="#eee"/>
    </g>
    <g id="グループ_10" data-name="グループ 10" transform="translate(441.349 418.444)">
      <rect id="長方形_23" data-name="長方形 23" width="1.343" height="10.878" transform="translate(14.24 18.953)" fill="#eee"/>
      <rect id="長方形_24" data-name="長方形 24" width="0.988" height="10.881" transform="translate(14.418)" fill="#eee"/>
      <rect id="長方形_25" data-name="長方形 25" width="10.871" height="2.341" transform="translate(0 13.746)" fill="#eee"/>
      <rect id="長方形_26" data-name="長方形 26" width="10.879" height="1.715" transform="translate(18.945 14.058)" fill="#eee"/>
      <rect id="長方形_27" data-name="長方形 27" width="10.874" height="1.529" transform="translate(3.834 24.929) rotate(-45.114)" fill="#eee"/>
      <rect id="長方形_28" data-name="長方形 28" width="10.879" height="1.806" transform="matrix(0.707, -0.707, 0.707, 0.707, 17.128, 11.424)" fill="#eee"/>
      <rect id="長方形_29" data-name="長方形 29" width="0.571" height="10.88" transform="matrix(0.708, -0.706, 0.706, 0.708, 4.17, 4.564)" fill="#eee"/>
      <rect id="長方形_30" data-name="長方形 30" width="1.659" height="10.883" transform="matrix(0.707, -0.708, 0.708, 0.707, 17.175, 18.356)" fill="#eee"/>
      <path id="パス_34" data-name="パス 34" d="M450.746,434.845l.785-.333-4.164-10.047-.785.327Z" transform="translate(-430.519 -405.986)" fill="#eee"/>
      <path id="パス_35" data-name="パス 35" d="M445.408,418.729l-1.268.522,4.169,10.056,1.26-.527Z" transform="translate(-435.572 -417.854)" fill="#eee"/>
      <path id="パス_36" data-name="パス 36" d="M441.687,427.9l.191.464L451.93,424.2l-.195-.468Z" transform="translate(-440.65 -407.505)" fill="#eee"/>
      <path id="パス_37" data-name="パス 37" d="M457.79,422.21l-.381-.914-10.049,4.163.381.914Z" transform="translate(-428.91 -412.543)" fill="#eee"/>
      <rect id="長方形_31" data-name="長方形 31" width="10.877" height="0.422" transform="translate(9.01 28.617) rotate(-67.505)" fill="#eee"/>
      <path id="パス_38" data-name="パス 38" d="M451.226,418.962l-.421-.177-4.164,10.05.421.177Z" transform="translate(-430.397 -417.739)" fill="#eee"/>
      <path id="パス_39" data-name="パス 39" d="M441.807,421.4l-.107.255,10.052,4.164.1-.249Z" transform="translate(-440.623 -412.323)" fill="#eee"/>
      <path id="パス_40" data-name="パス 40" d="M457.451,428.239l.132-.321-10.049-4.163-.134.324Z" transform="translate(-428.826 -407.455)" fill="#eee"/>
    </g>
    <g id="グループ_11" data-name="グループ 11" transform="translate(477.709 444.202)">
      <path id="パス_41" data-name="パス 41" d="M454.306,429.571l-1.111-2.735h.7l.718,1.909.767-1.909h.46l.761,1.909.706-1.909h.6l-1.1,2.735h-.451l-.789-1.931-.8,1.931Z" transform="translate(-453.195 -426.836)" fill="#eee"/>
      <path id="パス_42" data-name="パス 42" d="M455.357,429.571v-2.735h2.931v.485h-2.259v.6h1.317v.473h-1.317v.669h2.293v.513Z" transform="translate(-448.721 -426.836)" fill="#eee"/>
      <path id="パス_43" data-name="パス 43" d="M457.861,427.4c.1,0,.153.083.153.239v.666l-.638.945h-.381l.547-.973h-.365c-.1,0-.156-.077-.156-.236v-.4c0-.111.015-.178.043-.2a.4.4,0,0,1,.221-.037Z" transform="translate(-445.331 -425.669)" fill="#eee"/>
      <path id="パス_44" data-name="パス 44" d="M459.285,429.571v-2.735h.666v2.735Z" transform="translate(-440.593 -426.836)" fill="#eee"/>
      <path id="パス_45" data-name="パス 45" d="M460.277,429.571v-2.735h.457l2.32,1.82v-1.82h.6v2.735H463.2l-2.314-1.842v1.842Z" transform="translate(-438.54 -426.836)" fill="#eee"/>
      <path id="パス_46" data-name="パス 46" d="M463.327,427.484a.662.662,0,0,1,.15-.516.887.887,0,0,1,.565-.132h2.115a.883.883,0,0,1,.562.132.675.675,0,0,1,.15.516v1.443a.68.68,0,0,1-.15.512.885.885,0,0,1-.562.132h-2.115a.866.866,0,0,1-.565-.132.667.667,0,0,1-.15-.512Zm.672,1.565h2.2v-1.707H464Z" transform="translate(-432.228 -426.836)" fill="#eee"/>
      <path id="パス_47" data-name="パス 47" d="M465.907,426.836v2.222H467.8v-2.222h.675v2.09a.667.667,0,0,1-.154.512.882.882,0,0,1-.568.132h-1.808a.862.862,0,0,1-.562-.132.679.679,0,0,1-.151-.512v-2.09Z" transform="translate(-428.286 -426.836)" fill="#eee"/>
      <path id="パス_48" data-name="パス 48" d="M470,429.571v-2.735h2.459c.43,0,.645.178.645.531v.332c0,.252-.153.408-.464.46a.5.5,0,0,1,.485.525v.35c0,.359-.282.537-.847.537Zm2.155-2.3h-1.492v.654h1.492c.2,0,.295-.064.295-.2v-.258C472.451,427.342,472.356,427.275,472.157,427.275Zm0,1.108h-1.492v.7h1.492a.512.512,0,0,0,.233-.037.23.23,0,0,0,.089-.209v-.206a.223.223,0,0,0-.089-.209A.512.512,0,0,0,472.157,428.383Z" transform="translate(-418.415 -426.836)" fill="#eee"/>
      <path id="パス_49" data-name="パス 49" d="M471.765,429.571v-2.735H474.7v.485h-2.262v.6h1.317v.473h-1.317v.669h2.293v.513Z" transform="translate(-414.766 -426.836)" fill="#eee"/>
      <path id="パス_50" data-name="パス 50" d="M473.423,429.571v-2.735h.675v2.222h2.146v.513Z" transform="translate(-411.335 -426.836)" fill="#eee"/>
      <path id="パス_51" data-name="パス 51" d="M474.965,429.571v-2.735h.663v2.735Z" transform="translate(-408.144 -426.836)" fill="#eee"/>
      <path id="パス_52" data-name="パス 52" d="M475.957,429.571v-2.735h2.931v.485h-2.262v.6h1.32v.473h-1.32v.669h2.3v.513Z" transform="translate(-406.092 -426.836)" fill="#eee"/>
      <path id="パス_53" data-name="パス 53" d="M477.615,429.571v-2.735h2.9v.494h-2.231v.709h1.2v.51h-1.2v1.022Z" transform="translate(-402.661 -426.836)" fill="#eee"/>
      <path id="パス_54" data-name="パス 54" d="M480,427.4c.1,0,.156.083.156.239v.666l-.641.945h-.381l.549-.973h-.368c-.1,0-.157-.077-.157-.236v-.4c0-.111.015-.178.043-.2a.41.41,0,0,1,.224-.037Z" transform="translate(-399.523 -425.669)" fill="#eee"/>
      <path id="パス_55" data-name="パス 55" d="M485.051,427.33v2.241h-.669V427.33h-1.317v-.494h3.309v.494Z" transform="translate(-391.382 -426.836)" fill="#eee"/>
      <path id="パス_56" data-name="パス 56" d="M484.667,429.571l1.624-2.735h.638l1.648,2.735h-.749l-.347-.6h-1.8l-.344.6Zm1.292-1.1h1.255l-.642-1.139Z" transform="translate(-388.067 -426.836)" fill="#eee"/>
      <path id="パス_57" data-name="パス 57" d="M486.541,429.571v-2.735H487l2.32,1.82v-1.82h.6v2.735h-.457l-2.314-1.842v1.842Z" transform="translate(-384.189 -426.836)" fill="#eee"/>
      <path id="パス_58" data-name="パス 58" d="M488.418,429.571v-2.735h1.845a1.838,1.838,0,0,1,1.218.356,1.243,1.243,0,0,1,.421,1q0,1.377-1.808,1.375Zm.675-.513h.856a1.875,1.875,0,0,0,.952-.178.794.794,0,0,0,.316-.721q0-.829-.948-.829h-1.176Z" transform="translate(-380.305 -426.836)" fill="#eee"/>
      <path id="パス_59" data-name="パス 59" d="M491.452,429.571v-2.735h.672v1.044h2.081v-1.044h.666v2.735h-.666V428.42h-2.081v1.151Z" transform="translate(-374.026 -426.836)" fill="#eee"/>
      <path id="パス_60" data-name="パス 60" d="M493.343,429.571v-2.735h2.934v.485h-2.262v.6h1.317v.473h-1.317v.669h2.293v.513Z" transform="translate(-370.113 -426.836)" fill="#eee"/>
      <path id="パス_61" data-name="パス 61" d="M496.749,429.571v-2.735h2.934v.485h-2.262v.6h1.317v.473h-1.317v.669h2.293v.513Z" transform="translate(-363.065 -426.836)" fill="#eee"/>
      <path id="パス_62" data-name="パス 62" d="M499.242,427.4c.1,0,.154.083.154.239v.525c0,.111-.015.181-.046.206a.444.444,0,0,1-.224.034h-.574q-.157,0-.157-.239v-.525c0-.111.015-.178.049-.2a.419.419,0,0,1,.221-.037Z" transform="translate(-359.659 -425.669)" fill="#eee"/>
      <path id="パス_63" data-name="パス 63" d="M469.569,428.537l-.046.006a.8.8,0,0,0,.488-.126.507.507,0,0,0,.157-.4v-.648a.512.512,0,0,0-.157-.405.752.752,0,0,0-.485-.129h-2.462v2.735h.654l-.006-1.034.077.006.556-.006h.494l.6,1.034.752-.006Zm-1.851-.47-.006-.764h1.529a.466.466,0,0,1,.242.052.224.224,0,0,1,.061.175v.316a.2.2,0,0,1-.064.172.438.438,0,0,1-.239.058Z" transform="translate(-424.495 -426.836)" fill="#eee"/>
      <path id="パス_64" data-name="パス 64" d="M497.511,428.537l-.049.006a.806.806,0,0,0,.491-.126.5.5,0,0,0,.154-.4v-.648a.5.5,0,0,0-.154-.405.758.758,0,0,0-.485-.129H495v2.735h.654l0-1.034.077.006.556-.006h.494l.6,1.034.752-.006Zm-1.854-.47,0-.764h1.529a.461.461,0,0,1,.239.052.213.213,0,0,1,.061.175l0,.316a.2.2,0,0,1-.068.172.425.425,0,0,1-.236.058Z" transform="translate(-366.678 -426.836)" fill="#eee"/>
      <path id="パス_65" data-name="パス 65" d="M483.795,427.9h-1.473a.38.38,0,0,1-.239-.055.2.2,0,0,1-.064-.169v-.129a.2.2,0,0,1,.064-.169.383.383,0,0,1,.239-.052h1.3a.376.376,0,0,1,.242.055.151.151,0,0,1,.058.114h.583v-.068a.569.569,0,0,0-.153-.46.926.926,0,0,0-.568-.135h-1.651a.865.865,0,0,0-.565.141.678.678,0,0,0-.147.506v.3a.692.692,0,0,0,.147.51.829.829,0,0,0,.565.135H483.6a.406.406,0,0,1,.239.052.211.211,0,0,1,.064.175v.181a.212.212,0,0,1-.064.172.41.41,0,0,1-.239.049h-1.277a.41.41,0,0,1-.239-.049.212.212,0,0,1-.064-.163h-.6v.077a.656.656,0,0,0,.15.509.883.883,0,0,0,.574.135h1.648a.875.875,0,0,0,.565-.135.686.686,0,0,0,.147-.509v-.378a.714.714,0,0,0-.144-.516A.893.893,0,0,0,483.795,427.9Z" transform="translate(-394.782 -426.836)" fill="#eee"/>
    </g>
  </g>
</svg>
