<svg xmlns="http://www.w3.org/2000/svg" width="30" height="30.007" viewBox="0 0 30 30.007"><path d="M14.325 30.007h1.347l.005-10.939-1.354-.006.002 10.945zM14.502 0h.994v10.945h-.994zM0 13.828h10.936v2.355H0zm19.057.312H30v1.725H19.057zM3.852 25.073l7.726-7.743 1.089 1.086L4.94 26.16zm13.377-13.581l7.735-7.742 1.285 1.284-7.736 7.742zM4.19 4.597l.408-.407 7.731 7.745-.407.407zm13.086 13.87l1.179-1.18 7.747 7.73-1.179 1.181zm3.071 10.564l.788-.334-4.187-10.108-.791.329 4.19 10.113zM9.893.881l-1.274.524 4.193 10.114 1.268-.529L9.893.881zm-8.85 19.631l.192.469 10.11-4.188-.195-.473-10.107 4.192zm17.517-7.517l10.106-4.192.382.92-10.106 4.192zm-9.498 15.79l.393.163 4.187-10.108-.393-.162-4.187 10.107zM20.951 1.232l-.423-.179-4.187 10.109.423.179 4.187-10.109zM1.083 9.392l.105-.254L11.3 13.32l-.105.254zm17.6 7.33l.134-.324 10.11 4.185-.134.323z" fill="#fff"/></svg>