<?xml version="1.0" encoding="utf-8"?>
<!-- Generator: Adobe Illustrator 26.5.0, SVG Export Plug-In . SVG Version: 6.00 Build 0)  -->
<svg version="1.1" id="图层_1" xmlns="http://www.w3.org/2000/svg" xmlns:xlink="http://www.w3.org/1999/xlink" x="0px" y="0px"
	 viewBox="0 0 1253.2 191.5" style="enable-background:new 0 0 1253.2 191.5;" xml:space="preserve">
<style type="text/css">
	.st0{fill:#EEEEEE;}
	.st1{fill:#FFFFFF;filter:url(#Adobe_OpacityMaskFilter);}
	.st2{mask:url(#path-2-outside-1_22_63_00000132804369330738209220000007498286616231094974_);fill:#EEEEEE;}
</style>
<path class="st0" d="M214.3,48.5H240l-62.4,109.6l33.4,33.4l82-144.2V0L189.6,0L99.6,158.1l33.4,33.4L214.3,48.5z"/>
<path class="st0" d="M39,48.5L0,0h163.9L55,191.5l-33.4-33.4L84,48.5H39z"/>
<path class="st0" d="M384.6,130.6h-7.9V60.9h6.6l26.3,33.8l26.3-33.8h6.6v69.7h-7.9V74.9l-22.3,27.9h-5.3l-22.3-27.9V130.6z"/>
<path class="st0" d="M487.1,130.6h-7.9V60.9h7.9V130.6z"/>
<path class="st0" d="M531.7,130.6h-7.9V60.9h7.9v63.7h39.4v6H531.7z"/>
<path class="st0" d="M615.8,130.6h-7.9V60.9h7.9v63.7h39.4v6H615.8z"/>
<path class="st0" d="M699.9,60.9v6h47.3v-6H699.9z"/>
<path class="st0" d="M699.9,92.8v6h36.8v-6H699.9z"/>
<path class="st0" d="M692,130.6h7.9v-6V98.7v-6V66.9v-6H692V130.6z"/>
<path class="st0" d="M699.9,124.6v6h47.3v-6H699.9z"/>
<path class="st0" d="M791.8,130.6h-7.9V60.9h7.9l40.7,57.7V60.9h7.9v69.7h-7.9l-40.7-57.7V130.6z"/>
<path class="st0" d="M885.1,130.6h-7.9V60.9h7.9l40.7,57.7V60.9h7.9v69.7h-7.9l-40.7-57.7V130.6z"/>
<path class="st0" d="M978.3,130.6h-7.9V60.9h7.9V130.6z"/>
<path class="st0" d="M1062.4,60.9h7.9v58.7l-11.8,10.9h-15.8v-6h11.6l8.1-7V60.9z"/>
<path class="st0" d="M1023,60.9h-7.9v58.7l11.8,10.9h15.8v-6h-12.2l-7.5-7V60.9z"/>
<path class="st0" d="M1115,130.6h-7.9V60.9h6.6l26.3,33.8l26.3-33.8h6.6v69.7h-7.9V74.9l-22.3,27.9h-5.3L1115,74.9V130.6z"/>
<defs>
	<filter id="Adobe_OpacityMaskFilter" filterUnits="userSpaceOnUse" x="374.7" y="58.9" width="800" height="73.6">
		<feColorMatrix  type="matrix" values="1 0 0 0 0  0 1 0 0 0  0 0 1 0 0  0 0 0 1 0"/>
	</filter>
</defs>
<mask maskUnits="userSpaceOnUse" x="374.7" y="58.9" width="800" height="73.6" id="path-2-outside-1_22_63_00000132804369330738209220000007498286616231094974_">
	<rect x="374.7" y="58.9" class="st1" width="800" height="73.6"/>
	<path d="M384.6,130.6h-7.9V60.9h6.6l26.3,33.8l26.3-33.8h6.6v69.7h-7.9V74.9l-22.3,27.9h-5.3l-22.3-27.9V130.6z"/>
	<path d="M487.1,130.6h-7.9V60.9h7.9V130.6z"/>
	<path d="M531.7,130.6h-7.9V60.9h7.9v63.7h39.4v6H531.7z"/>
	<path d="M615.8,130.6h-7.9V60.9h7.9v63.7h39.4v6H615.8z"/>
	<path d="M699.9,60.9v6h47.3v-6H699.9z"/>
	<path d="M699.9,92.8v6h36.8v-6H699.9z"/>
	<path d="M692,130.6h7.9v-6V98.7v-6V66.9v-6H692V130.6z"/>
	<path d="M699.9,124.6v6h47.3v-6H699.9z"/>
	<path d="M791.8,130.6h-7.9V60.9h7.9l40.7,57.7V60.9h7.9v69.7h-7.9l-40.7-57.7V130.6z"/>
	<path d="M885.1,130.6h-7.9V60.9h7.9l40.7,57.7V60.9h7.9v69.7h-7.9l-40.7-57.7V130.6z"/>
	<path d="M978.3,130.6h-7.9V60.9h7.9V130.6z"/>
	<path d="M1062.4,60.9h7.9v58.7l-11.8,10.9h-15.8v-6h11.6l8.1-7V60.9z"/>
	<path d="M1023,60.9h-7.9v58.7l11.8,10.9h15.8v-6h-12.2l-7.5-7V60.9z"/>
	<path d="M1115,130.6h-7.9V60.9h6.6l26.3,33.8l26.3-33.8h6.6v69.7h-7.9V74.9l-22.3,27.9h-5.3L1115,74.9V130.6z"/>
</mask>
<path class="st2" d="M532.7,130.6v-6h-2v6H532.7z M616.8,130.6v-6h-2v6H616.8z M700.9,130.6v-6h-2v6H700.9z M700.9,124.6V60.9h-2
	v63.7H700.9z M700.9,66.9v-6h-2v6H700.9z M700.9,98.7v-6h-2v6H700.9z M792.8,72.9V60.9h-2v11.9H792.8z M833.5,130.6v-11.9h-2v11.9
	H833.5z M886.1,72.9V60.9h-2v11.9H886.1z M926.8,130.6v-11.9h-2v11.9H926.8z M1041.7,124.6v6h2v-6H1041.7z M376.7,130.6h-2v2h2
	V130.6z M384.6,130.6v2h2v-2H384.6z M384.6,74.9l1.6-1.2l-3.5-4.4v5.7H384.6z M406.9,102.7l-1.6,1.2l0.6,0.7h1V102.7z M412.2,102.7
	v2h1l0.6-0.7L412.2,102.7z M442.4,130.6v2h2v-2H442.4z M434.5,130.6h-2v2h2V130.6z M434.5,74.9h2v-5.7l-3.5,4.4L434.5,74.9z
	 M376.7,60.9v-2h-2v2H376.7z M383.3,60.9l1.6-1.2l-0.6-0.8h-1V60.9z M409.6,94.8L408,96l1.6,2l1.6-2L409.6,94.8z M435.8,60.9v-2h-1
	l-0.6,0.8L435.8,60.9z M442.4,60.9h2v-2h-2V60.9z M479.2,130.6h-2v2h2V130.6z M487.1,130.6v2h2v-2H487.1z M487.1,60.9h2v-2h-2V60.9z
	 M479.2,60.9v-2h-2v2H479.2z M523.9,130.6h-2v2h2V130.6z M523.9,60.9v-2h-2v2H523.9z M531.7,60.9h2v-2h-2V60.9z M531.7,124.6h-2v2h2
	V124.6z M571.1,124.6h2v-2h-2V124.6z M571.1,130.6v2h2v-2H571.1z M607.9,130.6h-2v2h2V130.6z M607.9,60.9v-2h-2v2H607.9z
	 M615.8,60.9h2v-2h-2V60.9z M615.8,124.6h-2v2h2V124.6z M655.2,124.6h2v-2h-2V124.6z M655.2,130.6v2h2v-2H655.2z M692,130.6h-2v2h2
	V130.6z M692,60.9v-2h-2v2H692z M699.9,124.6h-2v2h2V124.6z M747.2,124.6h2v-2h-2V124.6z M747.2,130.6v2h2v-2H747.2z M699.9,66.9v-2
	h-2v2H699.9z M747.2,60.9h2v-2h-2V60.9z M747.2,66.9v2h2v-2H747.2z M699.9,98.7v-2h-2v2H699.9z M699.9,92.8h-2v2h2V92.8z
	 M736.7,92.8h2v-2h-2V92.8z M736.7,98.7v2h2v-2H736.7z M783.9,130.6h-2v2h2V130.6z M791.8,130.6v2h2v-2H791.8z M840.4,130.6v2h2v-2
	H840.4z M832.5,130.6l-1.6,1.1l0.6,0.8h1V130.6z M783.9,60.9v-2h-2v2H783.9z M791.8,60.9l1.6-1.1l-0.6-0.8h-1V60.9z M832.5,60.9v-2
	h-2v2H832.5z M840.4,60.9h2v-2h-2V60.9z M791.8,72.9l1.6-1.1l-3.6-5.1v6.3H791.8z M832.5,118.6l-1.6,1.1l3.6,5.1v-6.3H832.5z
	 M877.2,130.6h-2v2h2V130.6z M885.1,130.6v2h2v-2H885.1z M933.7,130.6v2h2v-2H933.7z M925.8,130.6l-1.6,1.1l0.6,0.8h1V130.6z
	 M877.2,60.9v-2h-2v2H877.2z M885.1,60.9l1.6-1.1l-0.6-0.8h-1V60.9z M925.8,60.9v-2h-2v2H925.8z M933.7,60.9h2v-2h-2V60.9z
	 M885.1,72.9l1.6-1.1l-3.6-5.1v6.3H885.1z M925.8,118.6l-1.6,1.1l3.6,5.1v-6.3H925.8z M970.5,130.6h-2v2h2V130.6z M978.3,130.6v2h2
	v-2H978.3z M978.3,60.9h2v-2h-2V60.9z M970.5,60.9v-2h-2v2H970.5z M1015.1,60.9v-2h-2v2H1015.1z M1023,60.9h2v-2h-2V60.9z
	 M1023,117.6h-2v0.9l0.6,0.6L1023,117.6z M1030.5,124.6l-1.4,1.5l0.6,0.5h0.8V124.6z M1026.9,130.6l-1.4,1.5l0.6,0.5h0.8V130.6z
	 M1015.1,119.6h-2v0.9l0.6,0.6L1015.1,119.6z M1070.3,60.9h2v-2h-2V60.9z M1062.4,60.9v-2h-2v2H1062.4z M1062.4,117.6l1.3,1.5
	l0.7-0.6v-0.9H1062.4z M1054.3,124.6v2h0.7l0.6-0.5L1054.3,124.6z M1058.5,130.6v2h0.8l0.6-0.5L1058.5,130.6z M1070.3,119.6l1.4,1.5
	l0.6-0.6v-0.9H1070.3z M1107.1,130.6h-2v2h2V130.6z M1115,130.6v2h2v-2H1115z M1115,74.9l1.6-1.2l-3.5-4.4v5.7H1115z M1137.3,102.7
	l-1.6,1.2l0.6,0.7h1V102.7z M1142.5,102.7v2h1l0.6-0.7L1142.5,102.7z M1172.8,130.6v2h2v-2H1172.8z M1164.9,130.6h-2v2h2V130.6z
	 M1164.9,74.9h2v-5.7l-3.5,4.4L1164.9,74.9z M1107.1,60.9v-2h-2v2H1107.1z M1113.6,60.9l1.6-1.2l-0.6-0.8h-1V60.9z M1139.9,94.8
	l-1.6,1.2l1.6,2l1.6-2L1139.9,94.8z M1166.2,60.9v-2h-1l-0.6,0.8L1166.2,60.9z M1172.8,60.9h2v-2h-2V60.9z M376.7,132.6h7.9v-4h-7.9
	V132.6z M386.6,130.6V74.9h-4v55.7H386.6z M383.1,76.1l22.3,27.9l3.1-2.5l-22.3-27.9L383.1,76.1z M406.9,104.7h5.3v-4h-5.3V104.7z
	 M442.4,128.6h-7.9v4h7.9V128.6z M436.5,130.6V74.9h-4v55.7H436.5z M433,73.6l-22.3,27.9l3.1,2.5l22.3-27.9L433,73.6z M378.7,130.6
	V60.9h-4v69.7H378.7z M376.7,62.9h6.6v-4h-6.6V62.9z M381.7,62.1L408,96l3.1-2.4l-26.3-33.8L381.7,62.1z M435.8,62.9h6.6v-4h-6.6
	V62.9z M444.4,130.6V60.9h-4v69.7H444.4z M411.1,96l26.3-33.8l-3.1-2.4L408,93.5L411.1,96z M479.2,132.6h7.9v-4h-7.9V132.6z
	 M489.1,130.6V60.9h-4v69.7H489.1z M481.2,130.6V60.9h-4v69.7H481.2z M479.2,62.9h7.9v-4h-7.9V62.9z M523.9,132.6h7.9v-4h-7.9V132.6
	z M525.8,130.6V60.9h-4v69.7H525.8z M523.9,62.9h7.9v-4h-7.9V62.9z M533.7,124.6V60.9h-4v63.7H533.7z M531.7,126.6h39.4v-4h-39.4
	V126.6z M569.2,124.6v6h4v-6H569.2z M571.1,128.6h-39.4v4h39.4V128.6z M607.9,132.6h7.9v-4h-7.9V132.6z M609.9,130.6V60.9h-4v69.7
	H609.9z M607.9,62.9h7.9v-4h-7.9V62.9z M617.8,124.6V60.9h-4v63.7H617.8z M615.8,126.6h39.4v-4h-39.4V126.6z M653.2,124.6v6h4v-6
	H653.2z M655.2,128.6h-39.4v4h39.4V128.6z M692,132.6h7.9v-4H692V132.6z M694,130.6V60.9h-4v69.7H694z M692,62.9h7.9v-4H692V62.9z
	 M699.9,126.6h47.3v-4h-47.3V126.6z M745.2,124.6v6h4v-6H745.2z M747.2,128.6h-47.3v4h47.3V128.6z M699.9,62.9h47.3v-4h-47.3V62.9z
	 M745.2,60.9v6h4v-6H745.2z M747.2,64.9h-47.3v4h47.3V64.9z M699.9,94.8h36.8v-4h-36.8V94.8z M734.7,92.8v6h4v-6H734.7z M736.7,96.7
	h-36.8v4h36.8V96.7z M701.9,124.6V98.7h-4v25.9H701.9z M701.9,92.8V66.9h-4v25.9H701.9z M783.9,132.6h7.9v-4h-7.9V132.6z
	 M840.4,128.6h-7.9v4h7.9V128.6z M785.9,130.6V60.9h-4v69.7H785.9z M783.9,62.9h7.9v-4h-7.9V62.9z M832.5,62.9h7.9v-4h-7.9V62.9z
	 M842.4,130.6V60.9h-4v69.7H842.4z M793.8,130.6V72.9h-4v57.7H793.8z M834.2,129.4l-40.7-57.7l-3.3,2.3l40.7,57.7L834.2,129.4z
	 M834.5,118.6V60.9h-4v57.7H834.5z M790.2,62.1l40.7,57.7l3.3-2.3l-40.7-57.7L790.2,62.1z M877.2,132.6h7.9v-4h-7.9V132.6z
	 M933.7,128.6h-7.9v4h7.9V128.6z M879.2,130.6V60.9h-4v69.7H879.2z M877.2,62.9h7.9v-4h-7.9V62.9z M925.8,62.9h7.9v-4h-7.9V62.9z
	 M935.7,130.6V60.9h-4v69.7H935.7z M887.1,130.6V72.9h-4v57.7H887.1z M927.4,129.4l-40.7-57.7l-3.3,2.3l40.7,57.7L927.4,129.4z
	 M927.8,118.6V60.9h-4v57.7H927.8z M883.5,62.1l40.7,57.7l3.3-2.3l-40.7-57.7L883.5,62.1z M970.5,132.6h7.9v-4h-7.9V132.6z
	 M980.3,130.6V60.9h-4v69.7H980.3z M972.5,130.6V60.9h-4v69.7H972.5z M970.5,62.9h7.9v-4h-7.9V62.9z M1015.1,62.9h7.9v-4h-7.9V62.9z
	 M1021,60.9v56.7h4V60.9H1021z M1021.7,119.1l7.5,7l2.7-2.9l-7.5-7L1021.7,119.1z M1030.5,126.6h12.2v-4h-12.2V126.6z M1042.7,128.6
	h-15.8v4h15.8V128.6z M1028.3,129.1l-11.8-10.9l-2.7,2.9l11.8,10.9L1028.3,129.1z M1017.1,119.6V60.9h-4v58.7H1017.1z M1070.3,58.9
	h-7.9v4h7.9V58.9z M1060.4,60.9v56.7h4V60.9H1060.4z M1061.1,116.1l-8.1,7l2.6,3l8.1-7L1061.1,116.1z M1054.3,122.6h-11.6v4h11.6
	V122.6z M1042.7,132.6h15.8v-4h-15.8V132.6z M1059.8,132l11.8-10.9l-2.7-2.9l-11.8,10.9L1059.8,132z M1072.3,119.6V60.9h-4v58.7
	H1072.3z M1107.1,132.6h7.9v-4h-7.9V132.6z M1116.9,130.6V74.9h-4v55.7H1116.9z M1113.4,76.1l22.3,27.9l3.1-2.5l-22.3-27.9
	L1113.4,76.1z M1137.3,104.7h5.3v-4h-5.3V104.7z M1172.8,128.6h-7.9v4h7.9V128.6z M1166.9,130.6V74.9h-4v55.7H1166.9z M1163.3,73.6
	l-22.3,27.9l3.1,2.5l22.3-27.9L1163.3,73.6z M1109.1,130.6V60.9h-4v69.7H1109.1z M1107.1,62.9h6.6v-4h-6.6V62.9z M1112.1,62.1
	l26.3,33.8l3.1-2.4l-26.3-33.8L1112.1,62.1z M1166.2,62.9h6.6v-4h-6.6V62.9z M1174.7,130.6V60.9h-4v69.7H1174.7z M1141.5,96
	l26.3-33.8l-3.1-2.4l-26.3,33.8L1141.5,96z"/>
</svg>
